<?xml version="1.0" encoding="UTF-8" standalone="no"?>
<svg width="306px" height="322px" viewBox="0 0 306 322" version="1.1" xmlns="http://www.w3.org/2000/svg" xmlns:xlink="http://www.w3.org/1999/xlink" xmlns:sketch="http://www.bohemiancoding.com/sketch/ns">
    <title>bg1</title>
    <description>Created with Sketch (http://www.bohemiancoding.com/sketch)</description>
    <defs></defs>
    <g id="Page-1" stroke="none" stroke-width="1" fill="none" fill-rule="evenodd" sketch:type="MSPage">
        <g id="bg1" sketch:type="MSLayerGroup" transform="translate(0.000000, 1.000000)" stroke-width="0.25" stroke="#A0C83C">
            <g id="Group" sketch:type="MSShapeGroup">
                <path d="M272.229636,189.1 C273.38732,183.7 269.5,184.1 270.3,179.4 C273.38732,179.8 273.8,177.1 277.2,177.5 C278.789842,182.5 278.4,188.3 272.2,189.1 L272.229636,189.1 Z M281.876998,177.5 C282.648787,170.2 282.3,160.5 288.8,162.1 C291.138465,167.9 287.7,178.3 281.9,177.5 L281.876998,177.5 Z M255.636174,154.4 C253.320807,148.2 249.1,137 252.2,131.2 C261.810486,131.6 268,152.4 255.6,154.4 L255.636174,154.4 Z M73.4939845,120 C79.668296,117.7 82.8,126.6 80.4,131.2 C76.1952458,130.8 73.9,127 73.5,120 L73.4939845,120 Z M69.6350398,116.9 C68.4773564,120.8 66.9,124.3 62.7,123.5 C60.7594671,116.5 62.7,116.2 62.7,108.1 C67.319673,107.3 66.9,114.6 69.6,116.9 L69.6350398,116.9 Z M142.569095,320.3 C144.112672,312.2 139.5,310.6 142.6,306.4 C136.008889,307.2 133.7,317.6 127.9,308.7 C130.606366,308.7 129.1,301.8 127.9,306.4 C122.888477,316.8 114.4,305.2 108.2,315.7 C119.415426,318 132.5,316.8 142.6,320.3 L142.569095,320.3 Z M213.187782,299.1 C213.573677,301.4 214,303.7 216.3,302.9 C216.660833,298.7 215.1,296.8 212,297.1 C210.872416,305.6 206.6,299.5 204.7,302.9 C208.557049,307.9 211.6,302.5 213.2,299.1 L213.187782,299.1 Z M142.954989,315.3 C158.004873,318.7 185,313.3 200.8,304.9 C185.017486,304.1 161.9,307.6 143,315.3 L142.954989,315.3 Z M220.133883,304.9 C224.378722,302.9 229.4,302.2 231.7,297.1 C226.694089,297.9 220.5,296.8 220.1,304.9 L220.133883,304.9 Z M123.274371,306 C128.290999,296.8 132.5,297.5 143,293.7 C146.428039,290.2 144.5,280.2 149.9,279.4 C158.004873,277.8 156.1,289.4 163,289.8 C168.809918,288.6 169.2,280.9 174.6,279.4 C180.772647,278.6 182.3,283.6 186.2,285.6 C196.59432,283.2 212.8,285.2 219.4,293.7 C227.079983,291.4 235.6,290.6 241,285.6 C242.129868,291 237.5,289.8 237.5,293.7 C271.071953,274.8 273.8,262 294.2,230.4 C299.628144,221.5 296.2,223 295.8,226.5 C289.980782,256.2 264.9,277.5 242.5,291.7 C210.872416,311.8 144.1,332.3 96.6,312.2 C103.207859,313.7 114.8,301.4 123.3,306 L123.274371,306 Z M114.012904,20.1 C112.083431,25.5 105.5,25.1 104,30.5 C103.979648,35.9 110.2,35.5 112.5,32.4 C115.170587,29.3 110.5,23.5 115.6,20.1 C124.432054,21.6 132.1,24.3 134.1,34.7 C131.764049,37 129.1,43.2 125.6,38.6 C124.817949,44 125.2,48.2 120.6,53.3 C115.942376,54.8 117.5,49 114,49 C110.539854,50.9 117.9,56.3 119,59.4 C110.539854,68.3 96.3,69.8 90.5,82.2 C84.6849241,78 87.4,79.5 80.4,82.2 C82.3695573,88 72.3,99.9 63.8,92.6 C56.1287334,96.1 58.1,106.1 57.3,113.1 C51.4979998,114.2 46.9,111.5 50.3,106.9 C44.9377938,108.8 41.1,113.5 42.2,123.5 C51.1121053,133.1 48.4,134.3 60.4,133.9 C61.1453615,141.6 57.3,143.6 55.4,148.6 C66.9337786,152 65.4,140.1 70.4,135.8 C76.5811403,134.3 73.5,147 72.3,148.6 C75.8093514,148.2 75.8,143.2 75.4,138.2 C83.1413463,137.8 88.2,140.5 88.9,148.6 C98.577125,149.3 103.6,154.7 109,152.4 C113.627009,156.7 118.3,160.5 119,169 C130.220472,168.6 131.8,163.2 139.1,171.3 C137.552466,181.4 132.9,188.7 134.1,202.2 C129.448683,206.8 122.1,208 117.5,212.6 C119.415426,233.5 114.4,245 110.5,258.2 C112.083431,269.4 121.3,279.8 115.6,293.3 C108.996276,281.3 103.2,269 92.4,262.4 C96.6476527,252 89.3,240 78.9,241.6 C75.4234569,229.6 69.2,220.3 55.4,220.7 C55.3569445,204.9 45.7,201.1 40.3,191.8 C40.6929546,177.9 46.1,170.2 50.3,160.9 C43.7801104,149.7 34.5,142 25.3,133.9 C29.1161206,127.7 23.7,119.2 20.2,115.4 C14.4521307,116.9 18.7,131.2 15.2,135.8 C-0.211859098,126.2 12.9,106.1 12.1,86.4 C24.0994925,80.7 27.6,64.4 38.8,57.5 C31.8173819,52.9 24.9,66.4 13.7,63.7 C12.9085529,59.4 14.8,58.3 15.2,55.2 C9.4355026,60.2 5.6,68.3 2.1,76 C-3.68490932,80.7 6.3,62.5 8.7,59.4 C23.3277035,39.4 52.3,22.8 78.9,13.9 C81.9836629,13.5 82.4,15.8 80.4,15.8 C63.4607283,19.3 52.3,29.3 37.2,34.7 C51.1121053,45.1 63.1,18.9 80.4,20.1 C83.9131352,20.1 82.8,14.7 87.4,15.8 C79.2824016,10 96.6,9.6 102.4,7.7 C99.734808,11.2 94.7,12.3 88.9,12 C94.3322859,23.9 112.1,0.8 114,20.1 L114.012904,20.1 Z M204.698104,95.3 C193.12127,98 181.9,66.4 186.6,89.9 C192.735376,90.3 199.7,99.6 204.7,95.3 L204.698104,95.3 Z M173.440652,87.6 C175.370124,91.1 184.2,95.3 185.4,87.6 C180.000858,88.8 180,83.4 180.4,77.2 C169.195813,78 156.1,75.6 150.7,91.8 C160.32024,92.6 166.9,94.2 173.4,87.6 L173.440652,87.6 Z M269.914269,105.7 C264.897641,112.3 265.7,118.9 264.9,126.2 C262.19638,125.8 262.2,128.5 259.9,128.5 C254.092596,127.7 251.8,121.9 251.4,113.8 C250.233651,125 241.7,130 236.3,120 C237.885028,121.9 238.3,124.6 238.3,128.5 C242.515762,129.3 245.6,129.7 251.4,132.7 C253.320807,144.3 245.6,144.3 241.4,149.3 C233.254295,176.4 223.6,201.4 216.7,230 C209.714732,236.6 202.4,241.6 198.1,250.8 C191.191798,250.4 189.6,243.5 184.6,240.4 C182.702119,219.2 170.4,211.1 168,190.6 C171.125285,183.3 172.7,174 176.5,167.9 C175.756019,160.9 173.4,156.3 169.6,153.2 C164.950974,160.1 151.4,149.7 144.5,161.7 C117.871849,149.3 137.9,109.2 149.5,93 C146.042145,87.6 140.6,84.9 137.9,78.7 C141.411411,70.6 139.1,65.6 146.4,59.8 C145.270356,57.9 142.6,57.9 143,53.6 C140.253728,54.8 141.4,60.2 136.4,57.9 C134.079416,52.9 136.4,54 134.5,47.5 C138.71015,45.1 143.7,43.6 146.4,39.4 C149.901089,44.4 153,50.2 163,47.5 C168.03813,32.8 182.3,41.7 188.1,26.6 C180.386753,24.7 174.6,34.7 164.6,33.2 C165.336868,28.2 164.2,25.1 161.5,24.7 C164.950974,12.3 175.8,11.2 183.1,8.1 C184.631592,1.9 179.2,4.6 176.5,3.9 C203.540421,3.1 259.5,34 273.4,59.8 C271.457847,68.3 279.9,62.1 276.5,70.2 C278.018053,72.5 280.3,70.2 283.4,74.5 C291.52436,96.9 305.8,111.5 305,145.1 C302.715299,130 299.2,114.2 296.5,105.7 C291.52436,110.4 286.1,114.6 283.4,122.3 C274.545003,121.9 275.3,110.4 269.9,105.7 L269.914269,105.7 Z M286.121837,203.4 C291.52436,204.5 290.8,198.3 293.1,194.9 C301.557616,201.4 295.4,224.6 291.1,231.2 C288.823098,235 280.7,239.6 275.7,245.8 C270.686058,252.8 271.5,258.5 262.2,258.5 C258.72333,254.3 263,254.3 263.7,250.1 C262.19638,248.9 254.9,254.3 248.3,250.1 C244.445234,233.5 251,228.1 250.2,209.9 C255.636174,199.1 277.6,208.8 279.2,192.9 L286.121837,192.9 C288.437204,195.6 288.4,200.7 286.1,203.4 L286.121837,203.4 Z M258.72333,181.4 C250.619546,179.8 248.7,171.3 247.1,162.1 C255.25028,163.6 258,171.3 258.7,181.4 L258.72333,181.4 Z M156.075401,1.9 C156.84719,6.2 162.6,3.9 163,8.1 C155.689507,16.6 150.3,27 142.6,34.7 C136.394783,30.9 135.2,20.8 127.5,18.5 C131.378155,1.9 149.5,3.1 164.6,0 C169.967602,2.7 158.8,1.9 156.1,1.9 L156.075401,1.9 Z" id="Shape"></path>
            </g>
        </g>
    </g>
</svg>