<svg xmlns="http://www.w3.org/2000/svg" xmlns:xlink="http://www.w3.org/1999/xlink" xmlns:sketch="http://www.bohemiancoding.com/sketch/ns" width="260px" height="265px" viewBox="0 0 260 265" version="1.1"><title>Slice 1</title><description>Created with Sketch (http://www.bohemiancoding.com/sketch)</description><defs/><g stroke="none" stroke-width="1" fill="none" fill-rule="evenodd" sketch:type="MSPage"><g sketch:type="MSLayerGroup" fill="#273777"><g sketch:type="MSShapeGroup"><path d="M111.011 263 C78.751 256.9 49.7 238.2 29.8 210.8 L26.326 207.4 C38.134 227 54.6 243.4 73 250.9 C76.732 252.6 82.5 254.1 85.7 255.8 C102.369 263.3 119.4 265.6 135.8 264.7 C128.003 264.4 119.9 264.7 111.9 263 L111.011 263 L111.011 263 Z M63.483 184.1 C65.497 187.2 69 189.5 71.5 192.1 C60.891 180.9 55.1 166.5 50.2 151.8 C42.745 127 45 99.1 56.9 74.3 C57.723 71.4 59.5 68.6 61.2 66.2 C29.49 106.9 36.1 172 70.7 197 L72.413 198.8 C58.296 185.2 50.8 166.5 45.9 147.8 C49.37 161 55.4 173.4 63.5 184.1 L63.483 184.1 L63.483 184.1 Z M38.71 85 C40.44 78.1 43.9 71.4 46.8 64.2 C48.792 58.8 52.5 54.4 55.1 49.3 C70.393 25.3 100.6 8.6 129.4 4.9 C130.304 3.2 130.3 1.4 128.9 -0 C95.456 1.7 65.2 23 45 49.8 L44.47 50.7 C37.849 63.9 27.8 85.5 26.3 103.7 C26.611 122.1 27.8 139.4 33.8 155.5 C29.492 131.9 29.2 107.2 38.7 85 L38.71 85 L38.71 85 Z M77.019 229.9 C56.857 220.1 41.3 199 30.6 178 C23.159 161 22.6 140.6 20.3 123.9 L18.547 123.9 L18.838 125.9 C17.687 132.5 18 137.7 18 143.4 L17.687 142.6 L17.971 144 C17.971 147.8 18.3 151.8 19.1 156.1 C19.412 158.1 20.6 160.1 21.4 162.2 C27.19 185.2 40.7 206.5 56.6 219.2 C66.655 226.4 75.3 232.4 86.8 236.2 C83.935 234.5 79.6 231.9 77 229.9 L77.019 229.9 L77.019 229.9 Z M14.804 178.6 C17.398 186.7 22 193.3 26.3 201.6 C22.007 194.1 17.1 186.9 14.8 178.6 L14.804 178.6 L14.804 178.6 Z M136.644 265 C155.659 263.3 175.5 257.8 191.7 250 C205.775 244.8 233.1 213.2 222.8 213.2 C221.91 223.8 199.7 245.1 175.8 252.3 C152.487 260.7 130.9 258.1 136.6 265 L136.644 265 L136.644 265 Z M153.065 239.1 C164.299 235.3 178.1 230.4 189.9 221.5 C193.967 219.8 196 215.2 200.3 211.1 C205.489 206 208.1 202.5 210.7 197.3 L207.504 199.9 C213.553 192.1 215.6 186.7 220.2 178.3 C219.6 178 219.3 176 220.2 174.8 C223.348 168.8 225.7 162.2 226.2 156.7 C228.243 150.1 228 142.9 227.7 137.4 C227.955 136 226.5 133.4 226.5 130.8 L224.787 121 L224.496 121.6 C224.787 124.1 225.1 126.7 225.7 129.3 C225.935 137.1 227.4 147.2 225.1 155 C221.906 175.1 212.4 193 199.4 207.7 C196.269 210.6 194.5 215.2 190.8 217.2 C181.288 226.4 166.3 231 158.5 236.8 C157.386 237.6 154.5 237.9 153.1 239.1 L153.065 239.1 L153.065 239.1 Z M222.196 104 L222.481 103.7 L222.196 103.7 L222.196 104 L222.196 104 Z M210.675 66.2 C205.775 57 195.4 48.4 185 43.2 L184.751 43.5 C193.103 48.7 203.2 56.7 210.7 66.2 L210.675 66.2 L210.675 66.2 Z M187.632 43.2 L190.511 46.1 L190.224 44.9 C189.356 43.5 188.5 43.2 187.6 43.2 L187.632 43.2 L187.632 43.2 Z M46.774 70.3 C47.35 68.8 48.2 67.7 49.1 66.2 C49.946 64.2 51.1 62.2 52.3 60.2 C50.231 63.4 48.2 66.8 46.8 70.3 L46.774 70.3 L46.774 70.3 Z M142.983 11.5 C135.204 11.5 128 12.4 120.8 13.8 C121.092 13.5 121.4 13.2 122 13 C117.059 13 112.5 15.3 108.1 17.3 C106.978 17.9 105.8 18.1 104.7 18.7 L104.674 17.9 C96.032 20.2 91.1 25.1 83.1 29.4 C92.576 19.9 108.1 13.2 124 10.9 L125.986 8.6 C92.288 11.8 59.5 34.6 44.8 66 L37.848 83.5 L42.452 75.5 L38.133 84.4 L36.406 89 C34.386 98.2 32.7 107.4 32.7 117.5 C32.661 117.8 32.4 118.1 32.4 118.4 C32.086 110 32.9 102 35 93.6 C28.051 111.5 27.5 132.5 31.5 150.9 C34.678 159 37.6 170.5 43.3 179.2 C43.607 180 43.9 180.6 44.2 181.5 C39.572 178.9 36.4 169.1 34.1 160.4 C33.526 162.5 32.7 157.3 31.8 157.6 C27.764 148.3 24.9 137.7 23.2 128.8 C21.715 114.4 24.6 100.2 26.3 87 C26.035 83 29.5 76.3 31.8 71.4 L34.102 63.9 L29.782 71.1 C26.326 71.7 52.3 28.8 52 30.2 C50.81 28.8 24.6 62.5 18.3 92.5 C15.089 97.6 12.5 85.3 13.4 80.7 L13.365 79.2 L9.045 92.8 C7.025 100 6.7 107.4 6.7 115.2 C5.586 127.3 7 139.1 9.3 151.2 L7.025 141.7 L5.877 136.8 C3.569 124.1 4.4 108 9 92.8 C11.062 84.7 11.9 75.8 15.4 68 C10.486 76.9 8.5 87.9 4.7 98.2 C2.129 118.1 3.3 138.3 7.3 157.6 L5.01 148.1 C0.115 134.2 1.3 116.1 4.7 98.2 C7.89 79.2 13.9 61.4 22 44.4 C16.245 55.6 8.5 67.7 5.9 80.1 C-7.087 129 3.6 177.7 29.8 212.3 C33.812 215.7 37.8 219.2 41 222.9 C48.504 231.9 60 239.9 69 246.9 C67.803 244.8 72.7 247.7 73 247.1 C83.645 251.5 94.9 257.8 107.6 261 C109.278 261.5 109 262.1 110.7 263.3 C128.863 262.4 151.3 264.1 172.6 257.5 L188.781 252 C183.593 254.1 178.1 255.8 172.6 257.5 C160.839 262.1 148.2 263.8 135.5 265 C166.601 264.1 195.1 252.3 217.9 232.2 C239.477 212.6 252.7 186.1 255.9 158.7 C257.043 147.8 258.8 136.8 258.5 125.6 L259.639 128.5 C259.061 114.6 257.6 101.1 252.2 87.9 L250.712 84.4 C238.9 58.2 222.8 39.2 199.4 23.9 C193.392 20.7 187.6 16.7 181 15 C177.55 14.4 179.9 17 179 17.9 C167.753 13.8 155.7 11.5 143 11.5 L142.983 11.5 Z"/></g></g></g></svg>