<?xml version="1.0" encoding="UTF-8" standalone="no"?>
<svg width="248px" height="92px" viewBox="0 0 248 92" version="1.1" xmlns="http://www.w3.org/2000/svg" xmlns:xlink="http://www.w3.org/1999/xlink" xmlns:sketch="http://www.bohemiancoding.com/sketch/ns">
    <title>logo</title>
    <description>Created with Sketch (http://www.bohemiancoding.com/sketch)</description>
    <defs></defs>
    <g id="Page-1" stroke="none" stroke-width="1" fill="none" fill-rule="evenodd" sketch:type="MSPage">
        <g id="Logo" sketch:type="MSLayerGroup">
            <g id="mar" transform="translate(158.000000, 0.000000)" fill="#273777" sketch:type="MSShapeGroup">
                <path d="M61.9702388,6.17182479 C58.0592471,4.76401014 53.8644092,4 49.5,4 C46.8463175,4 44.2553492,4.28242763 41.7527736,4.8202659 C41.8928088,4.70329627 42.0306025,4.58461355 42.164365,4.45953067 C40.4746252,4.54347171 38.8929305,5.34687848 37.4408558,6.02645635 C37.0185456,6.17285276 36.5994663,6.32672894 36.1837595,6.48793583 C36.2284519,6.39364847 36.1877573,6.30739394 36.167154,6.23688792 C33.1685485,7.03953473 31.484799,8.69742974 28.713351,10.2475869 C32.0346593,6.91436872 37.3991196,4.59768859 42.9043669,3.76652295 L43.5994435,3 C31.8511616,4.09987645 20.5448561,11.9853347 15.3765485,22.859567 L12.9929767,28.982878 L14.6390776,26.1851802 L13.0508734,29.2930996 L12.5427746,30.8923725 C11.834331,34.0875094 11.1691981,37.3018711 11.1626598,40.7521803 C11.1538371,40.8533269 11.1453683,40.9545763 11.1372544,41.0559319 C11.0307674,38.2269556 11.2959356,35.3632124 12.0498618,32.5071724 C9.60934246,38.6834018 9.40970962,46.0406278 10.7929026,52.3553319 C11.9199035,55.2422986 12.9064952,59.1895886 14.8676109,62.2133752 C14.9909604,62.4797646 15.1170056,62.7445182 15.2457091,63.0075969 C13.6350218,62.1447821 12.5005346,58.7305925 11.7243116,55.7148508 C11.5423958,56.3736359 11.2225403,54.6415919 10.8757929,54.7268316 C9.47361744,51.4674454 8.54410669,47.8274913 7.8638997,44.7385845 C7.43078186,39.6809273 8.44413208,34.8067413 9.00569831,30.2453118 C8.91300033,28.8238063 10.0832727,26.5445175 10.8821204,24.7937778 L11.6638839,22.238807 L10.1718578,24.6974475 C9.04745985,24.8733137 18.0239774,9.99028366 17.9293812,10.4937996 C17.4924668,9.95035729 8.38971552,21.7425792 6.22918832,32.0584761 C5.13990803,33.8868504 4.19489489,29.5504029 4.47203968,28.0420733 L4.49355321,27.4970466 L2.98602471,32.196634 C2.28746796,34.7199173 2.20963963,37.3490371 2.15364119,39.9664325 C1.76418315,44.172644 2.32480025,48.3462172 3.08505019,52.472576 L2.28367146,49.1713622 L1.86732151,47.5321629 C1.07575041,43.0708663 1.37978711,37.4792731 2.98602471,32.196634 C3.73393602,29.3517216 3.96394089,26.2514072 5.24494464,23.6146824 L5.31106709,23.3950874 C3.50298202,26.6639797 2.75000871,30.5216277 1.52974902,34.0706384 C0.637254186,40.9772668 0.965335414,47.971353 2.42983686,54.7455272 L1.59840247,51.4069221 C-0.103380485,46.5913582 0.312020337,40.299786 1.52974902,34.0706384 C2.55100862,27.498631 4.66028301,21.2710678 7.53138922,15.4453033 C5.52651869,19.2706299 2.76962398,23.5370478 1.9084503,27.8449764 C-2.57775202,44.7686877 1.11244995,61.7320084 10.1778689,73.6928083 C11.6138966,74.8833113 12.9660848,76.0627236 14.1499613,77.3780757 C16.7455046,80.5354278 20.6533728,83.2817917 23.8054203,85.651707 C23.4346284,84.9983088 25.1351459,86.0056575 25.2272111,85.840882 C28.9006452,87.3476272 32.7835197,89.4976306 37.1833516,90.6260258 C37.791425,90.8224889 37.7468161,91.0043757 38.3447655,91.3602274 C44.5915966,91.0553928 52.3573457,91.7160791 59.8244364,89.4371072 L65.441997,87.5196908 C63.6468833,88.2389992 61.7302815,88.8258535 59.8244364,89.4371072 C55.6574568,91.0043757 51.2557267,91.555423 46.8932272,92 C57.6816263,91.6726671 67.5651919,87.616338 75.4916597,80.5921486 C82.9846932,73.7837517 87.5607461,64.578822 88.7338659,55.131799 C89.0603652,51.3045712 89.6557836,47.4640346 89.568464,43.6444118 L90,44.5852165 C89.8304228,39.7566606 89.2849917,35.0906621 87.3791467,30.5441259 L86.9425487,29.2950008 C82.7581685,20.2152371 77.1779402,13.5941139 69.0948667,8.30006729 C66.9843268,7.23599782 65.0177376,5.81449227 62.7357223,5.22985612 C61.5374143,4.97111484 62.3351503,5.86164652 61.9702388,6.17182479 Z M16.0694863,24.3983556 C16.3240137,23.9309466 16.5871443,23.4693858 16.858651,23.0139122 C17.2121616,22.2973446 17.588195,21.5938111 17.988227,20.9041254 C17.269479,22.0362412 16.632411,23.204715 16.0694863,24.3983556 Z M65,15.0032416 L66,16 L65.9074232,15.5762001 C65.625,15.1305 65.2860495,14.9748304 65,15.0032416 L65,15.0032416 Z M73,23 C71.3046455,19.8416187 67.729659,16.7992184 64.0951598,15 L64,15.1166534 C66.892253,16.9219229 70.3751007,19.6970627 73,23 L73,23 Z M77.0408124,36.0928447 L77.0765628,36 L77,36.0342226 L77.0408124,36.0928447 Z M53,83 C56.9146155,81.6859344 61.7366554,79.9863412 65.8003931,76.9207228 C67.18247,76.2676993 67.9420412,74.6832512 69.3815461,73.303755 C71.1513406,71.5162794 72.072408,70.332113 73.0321836,68.521865 L71.8772801,69.4430259 C74.0192455,66.7420871 74.6896607,64.8051475 76.3024011,61.8505046 C76.1450296,61.7549245 76.0466724,61.143597 76.2630582,60.7202222 C77.3982904,58.6203473 78.1635726,56.3232183 78.3977262,54.3824298 C79.1414333,52.0987718 79.0272121,49.6255574 78.9269512,47.7190879 C78.975178,47.2399046 78.5354262,46.2764062 78.467528,45.3568489 L77.9417931,42 L77.8113905,42.153313 C77.8900762,43.0597199 78.0062012,43.9754283 78.2349609,44.89691 C78.2777939,47.5965658 78.8035288,51.0582962 78.0166714,53.7752718 C76.8871503,60.8103497 73.620423,67.0406947 69.0702932,72.0871939 C68.0461095,73.0968787 67.3522155,74.6887037 66.0989547,75.447571 C62.7808278,78.6491825 57.6288155,80.2313854 54.9442992,82.2241336 C54.4715502,82.4634045 53.464817,82.5670031 53,83 L53,83 Z M47.3406356,92 C53.9316352,91.4249427 60.8084028,89.4634591 66.354326,86.7797501 C71.2866697,85.0078993 80.8273392,73.9576573 77.1935962,74.0001221 C76.9476587,77.746747 69.2474112,85.1262172 60.9222043,87.5599999 C52.8056332,90.5228093 45.2937904,89.5876118 47.3406356,92 L47.3406356,92 Z M5,62 C5.91658291,64.7968015 7.5493622,67.0818438 9,70 C7.54132199,67.4302289 5.833707,64.9372844 5,62 L5,62 Z M26.5669995,79.799362 C19.5505019,76.3549686 14.2472751,69.1185443 10.5358883,61.8402244 C7.8873429,55.94286 7.65255537,48.8458744 6.85453616,43.032621 L6.30842102,43 L6.43211239,43.6629738 C5.95704712,45.9515605 6.12466023,47.8199121 6.08106144,49.7877257 L6,49.4516015 L6.0855828,50.03782 C6.11658638,51.3484165 6.22735958,52.7124219 6.53029039,54.2385728 C6.63686519,54.943762 6.98727023,55.6083348 7.25370724,56.2885786 C9.33482251,64.3139832 13.9608149,71.6668197 19.4558764,76.1275811 C23.0090158,78.6246863 26.0499502,80.7277811 30,82 C29.0211266,81.3677283 27.4841887,80.5310957 26.5669995,79.799362 Z M13.2560701,29.490052 C13.9407697,27.0518137 15.1085822,24.7600399 16.0861829,22.3236915 C16.823333,20.4212295 18.0641338,18.8561079 19.0398386,17.0534936 C24.3262758,8.84455877 34.776555,3.02535566 44.8388273,1.68953751 C45.0827535,1.1061998 45.0758022,0.539870859 44.6369246,0 C32.97049,0.637828757 22.5164191,7.99979002 15.4533018,17.337603 L15.3275471,17.5955693 C12.9647489,22.1674629 9.52703228,29.6762035 9,36.0094493 C9.12006731,42.3688383 9.46794653,48.4195496 11.5912421,54 C10.0546965,45.7608273 9.97001745,37.2491994 13.2560701,29.490052 Z M21.8786368,63.8574492 C22.5953797,65.0152029 23.8199246,65.7629056 24.7060438,66.7148434 C21.0487583,62.8112977 18.9600019,57.7822459 17.2816071,52.6852212 C14.7380198,44.130427 15.5110035,34.3799408 19.5616475,25.8004866 C19.9108635,24.7505412 20.4516905,23.8308511 21.1177514,23 C10.1360853,37.0672444 12.3546533,59.6820116 24.3852752,68.4467316 L25,69 C20.1400774,64.2504278 17.4787768,57.7860398 15.7902455,51.2574726 C16.9850351,55.9163087 19.1038737,60.1843793 21.8786368,63.8574492 Z M38.4378872,91.2883828 C27.1750015,89.2182392 17.0836231,82.7024413 10.2260109,73.2140131 L9,72 C13.1061383,78.7754574 18.8245649,84.5129254 25.226186,87.1464748 C26.4857862,87.6790846 28.4694586,88.1805741 29.6159324,88.8366923 C35.3505199,91.4355556 41.2812565,92.2352806 47,91.9428801 C44.2919387,91.7529171 41.4672654,91.8767496 38.6682594,91.3464091 L38.4378872,91.2883828 Z" id="Fill-1"></path>
            </g>
            <path d="M0,88 L7,88 L7,5 L2.23581729e-15,5 L0,88 Z" id="Fill-66" fill="#A0C93C" sketch:type="MSShapeGroup"></path>
            <g id="Group-157" transform="translate(26.000000, 5.000000)" sketch:type="MSShapeGroup">
                <g id="gef" transform="translate(1.000000, 1.000000)" fill="#273777">
                    <path d="M17.0970992,23.3426228 L28.3586765,23.3426228 L28.3586765,32.7577034 L18.8810142,32.8134402 C14.9037299,32.8134402 12.3303795,31.5875479 11.1596952,29.1363967 C9.98901085,26.6852456 9.4036687,23.7701492 9.4036687,20.3898407 L9.4036687,20.2229471 C9.4036687,16.9176933 9.98901085,13.8816227 11.1596952,11.1144187 C12.3303795,8.34784812 14.9037299,6.94556164 18.8810142,6.90819267 L37,6.90819267 L37,0 L18.8810142,0.0557367704 C12.8225486,0.0557367704 8.27893708,1.5416284 5.25017966,4.51277829 C2.2204715,7.48456155 0.501841027,12.1265478 0.0933374897,18.4400038 C0.0559415103,18.9973715 0.0280529833,19.5544225 0.00967190867,20.1114735 C-0.00965991119,20.6685246 0.000164456277,21.2448934 0.0375604357,21.8383634 C0.111718564,24.5875162 0.595014061,27.270165 1.48713001,29.8885265 C2.37892904,32.5068879 3.94005273,34.7265415 6.17018414,36.5459037 C8.02825725,38.0691643 10.0349635,39.0249232 12.1909368,39.4150806 C14.3462763,39.8049213 16.5760908,40 18.8810142,40 L37,40 L37,16.2675365 L17.0970992,16.2675365 L17.0970992,23.3426228 Z M60.1210623,6.96392944 L74,6.96392944 L74,0 L59.9534092,0.0557367704 C53.8714524,0.0557367704 49.310462,1.5416284 46.2701198,4.51277829 C43.2288232,7.48456155 41.5036191,12.1265478 41.0935531,18.4400038 C41.0560141,18.9973715 41.0280189,19.5544225 41.0095675,20.1114735 C40.9904799,20.6685246 41.0000237,21.2448934 41.0375627,21.8383634 C41.1120045,24.5875162 41.5971486,27.270165 42.4926768,29.8885265 C43.388205,32.5068879 44.9549817,34.7265415 47.1936432,36.5459037 C49.0588233,38.0317953 51.045528,38.978687 53.1537573,39.3872122 C55.2610322,39.7963708 57.4532471,40 59.7294476,40 L74,40 L74,33.0360706 L60.1210623,33.0918073 L59.8694236,33.0918073 L59.6174669,33.0918073 C58.3863144,33.0918073 57.1831571,32.9717833 56.007995,32.729835 C54.8325148,32.4885201 53.8157801,31.8662318 52.9577909,30.8636033 C51.9871847,29.7865535 51.3436132,28.5983469 51.0270766,27.2980334 C50.7095856,25.9983532 50.5514764,24.643253 50.5514764,23.2311493 L74,23.2311493 L74,16.2675365 L50.6074668,16.3232733 C50.7935712,13.3521234 51.6515604,11.058682 53.1817525,9.44294898 C54.7109902,7.8275327 57.0237753,7.00129841 60.1210623,6.96392944 L60.1210623,6.96392944 Z M81,40 L89.5471538,40 L89.5471538,23.6213066 L114,23.6213066 L114,16.713114 L89.5471538,16.7688507 C89.7353888,13.2032809 90.6694846,10.6963929 92.3491195,9.24787029 C94.0277892,7.79966431 96.6598608,7.03866738 100.245334,6.96392944 L114,6.96392944 L114,0 L100.98122,0.0557367704 C92.6036389,0.0557367704 87.1786111,1.72720651 84.7074241,5.06982931 C82.2355935,8.4124521 81,13.9275422 81,21.615733 L81,40 Z" id="Fill-67"></path>
                </g>
                <g id="txt" transform="translate(0.000000, 50.000000)" fill="#273777">
                    <path d="M1,27.4847695 L1,33 L3.59001999,33 L3.59001999,28.0865413 L11,28.0865413 L11,26.0140201 L3.59001999,26.0306207 C3.64702991,24.9611588 3.93011369,24.2090239 4.43927132,23.7745351 C4.94777366,23.3400463 5.74525736,23.111788 6.83205006,23.0891218 L11,23.0891218 L11,21 L7.05484748,21.0169198 C4.51626749,21.0169198 2.87248124,21.5181303 2.12348875,22.5211897 C1.37449625,23.5239299 1,25.1782436 1,27.4847695 L1,27.4847695 Z M18.7442933,31.7987847 C19.1628622,31.3820366 19.4768658,30.8832588 19.686304,30.3015086 C19.8954347,29.7203869 20,29.1226079 20,28.5081715 C20,27.8940494 19.8954347,27.2962704 19.686304,26.7148345 C19.4768658,26.1333985 19.1628622,25.6343065 18.7442933,25.2175583 C18.336181,24.8118103 17.8450314,24.5072636 17.2711523,24.3042324 C16.696658,24.1015156 16.1089393,24 15.5079962,24 C14.896289,24 14.3030344,24.1015156 13.7288477,24.3042324 C13.154661,24.5072636 12.6635115,24.8118103 12.2557067,25.2175583 C11.8371378,25.6343065 11.5231342,26.1333985 11.3140036,26.7148345 C11.1045653,27.2962704 11,27.8940494 11,28.5081715 C11,29.1226079 11.1045653,29.7203869 11.3140036,30.3015086 C11.5231342,30.8832588 11.8371378,31.3820366 12.2557067,31.7987847 C12.6635115,32.204847 13.1518931,32.5062509 13.7208516,32.7039391 C14.28981,32.901313 14.8802966,33 15.4920038,33 C16.103711,33 16.696658,32.901313 17.2711523,32.7039391 C17.8450314,32.5062509 18.336181,32.1995041 18.7442933,31.7824417 L18.7442933,31.7987847 Z M15.2964578,30.866202 C14.8509749,30.6887071 14.5263683,30.3831045 14.3234891,29.9493944 C14.12061,29.5162828 14.0139211,29.0538382 14.0042736,28.5626591 C13.9943425,28.3746881 14.0017199,28.1843226 14.0264059,27.9906645 C14.0510919,27.7976051 14.0882628,27.612328 14.1379185,27.4345337 C14.2763871,26.9643069 14.5439606,26.5988409 14.9400715,26.3375373 C15.3358987,26.0765329 15.761803,25.9669829 16.2175009,26.008588 C16.3065974,26.0190641 16.4008015,26.0349279 16.4998292,26.0555807 C16.5985732,26.0765329 16.6927772,26.1079612 16.7821575,26.1495662 C17.197847,26.3375373 17.5000376,26.6380514 17.688162,27.0505101 C17.8762863,27.4635675 17.9801377,27.8993729 18,28.3591236 C18,28.5680468 17.9875151,28.7742762 17.9631129,28.978111 C17.9381431,29.1816465 17.9009723,29.3723114 17.8516003,29.5501056 C17.712848,30.0514614 17.4356271,30.4327912 17.0196538,30.6937955 C16.6036806,30.9550992 16.1581977,31.0490847 15.6829214,30.9760513 C15.6233345,30.9655752 15.5614776,30.9500108 15.497067,30.9287593 C15.4326564,30.9081064 15.3656921,30.8817665 15.2964578,30.8506376 L15.2964578,30.866202 Z M22,24 L22,33 L24.1830154,33 L24.1830154,25.7419986 L24.3009108,25.7419986 L24.4185062,25.7419986 C25.172377,25.7419986 25.6094601,25.810178 25.7300554,25.9468629 C25.8500507,26.0835478 25.9106484,26.5673276 25.9106484,27.3985284 L25.9106484,27.5864294 L25.9106484,27.7740041 L27.9991674,27.7912936 L27.9991674,27.5009605 L27.9991674,27.2275907 C28.009667,26.2486136 27.9208705,25.4686288 27.7321778,24.8879626 C27.5437851,24.3072964 26.8580117,24.0114176 25.6748575,24 L22,24 Z M30,24 L30,33 L32.2309936,33 L32.2309936,25.9807894 L34.8284924,25.9807894 L34.8284924,33 L37.0914487,33 L37.0914487,25.9980789 L37.4342102,25.9980789 C37.5456229,25.9980789 37.6546003,25.9925333 37.7608381,25.9807894 C38.4302275,25.9582805 38.9321935,26.0124325 39.266736,26.1432455 C39.6015829,26.2740585 39.768702,26.7611004 39.768702,27.6033927 L39.768702,33 L42,33 L42,27.3130596 C41.9890414,26.0382036 41.6758073,25.17275 41.059689,24.7170249 C40.4432663,24.2619522 39.5933639,24.0228352 38.509982,24 L30,24 Z M44.5918517,24 L44.5918517,25.861394 L48.4777529,25.8783573 C49.1029012,25.8783573 49.6192724,25.9696981 50.0268665,26.1517271 C50.4344606,26.3340824 50.6216211,26.795027 50.5880282,27.5352133 L47.523074,27.5521766 C46.5959094,27.5521766 45.7976776,27.7116967 45.1277388,28.0304107 C44.4577999,28.3491247 44.0834788,29.0495125 44.0057352,30.1309217 C43.9609446,31.0303019 44.1784988,31.7336257 44.6587176,32.2399145 C45.1389364,32.7468556 45.8312705,33 46.7357199,33 L53,33 L53,27.3812389 C53,26.9261662 52.9353736,26.4821849 52.8074006,26.049295 C52.6787877,25.6167313 52.4525953,25.2409294 52.1288236,24.9222154 C51.7490636,24.535322 51.3219536,24.2873972 50.8474936,24.1790931 C50.3730335,24.0711153 49.8787377,24.0114176 49.3652459,24 L44.5918517,24 Z M47.2065693,31 C46.8854889,30.9881924 46.5990618,30.9395728 46.3475948,30.8544886 C46.0961277,30.770099 45.9808209,30.4908838 46.0025943,30.0182323 C46.0130209,29.5942004 46.1470345,29.3247092 46.4040215,29.2094114 C46.6607019,29.0941136 46.9388489,29.0305609 47.2387694,29.018406 L47.3028628,29.018406 C47.3243295,29.018406 47.3454895,29.0125022 47.3672629,29 L50,29 L50,30.9819413 L47.2065693,30.9819413 L47.2065693,31 Z M59.4537239,31.0873899 L59.3764943,31.0873899 L59.2818469,31.0873899 L59.06659,31.0873899 L58.8516617,31.0873899 C58.6219447,31.0759723 58.3984718,31.0531371 58.1805858,31.0188843 C57.9626997,30.9849578 57.756316,30.9109065 57.5614345,30.7970568 C57.159512,30.5579398 56.8844432,30.2362898 56.7355708,29.832107 C56.5863698,29.4279242 56.5058538,29.0038421 56.4946802,28.5598608 C56.4946802,28.1044619 56.5659943,27.6660263 56.7096085,27.2448802 C56.8528941,26.8237341 57.1368361,26.4877306 57.5614345,26.237196 C57.756316,26.1233463 57.9626997,26.049295 58.1805858,26.0150422 C58.3984718,25.9807894 58.6219447,25.9638262 58.8516617,25.9638262 L59.0324118,25.9638262 L59.230251,25.9638262 L59.3419874,25.9638262 C59.3820811,25.9638262 59.4195457,25.9582805 59.4537239,25.9468629 L62,25.9468629 L62,24 L58.7484698,24.0169633 C58.1289899,24.0169633 57.5239699,24.0851426 56.93341,24.2218275 C56.3425215,24.3585125 55.812102,24.6488456 55.3418231,25.0928269 C54.9517315,25.4686288 54.6477427,25.9070644 54.4301853,26.4078075 C54.2119706,26.9088767 54.0798587,27.4213636 54.0341782,27.9449418 C54.0226759,28.047374 54.0141314,28.1498061 54.0085446,28.2522382 C54.0026291,28.3546703 54,28.4574287 54,28.5598608 C54,28.6394578 54.0026291,28.7219906 54.0085446,28.8074595 C54.0141314,28.8926021 54.0170891,28.9754612 54.0170891,29.0550582 C54.0742719,29.5903802 54.2119706,30.1110225 54.4301853,30.6176375 C54.6477427,31.1242524 54.9517315,31.565624 55.3418231,31.9410997 C55.812102,32.385081 56.3425215,32.6728044 56.93341,32.8036174 C57.5239699,32.9347566 58.1289899,33 58.7484698,33 L62,33 L62,31.0701004 L59.4537239,31.0701004 L59.4537239,31.0873899 Z M66,24 L64,24 L64,33 L66,33 L66,24 Z M66,21 L64,21 L64,23 L66,23 L66,21 Z M74.7440287,31.7987847 C75.1628908,31.3820366 75.4765761,30.8832588 75.6860072,30.3015086 C75.8954382,29.7203869 76,29.1226079 76,28.5081715 C76,27.8940494 75.8954382,27.2962704 75.6860072,26.7148345 C75.4765761,26.1333985 75.1628908,25.6343065 74.7440287,25.2175583 C74.3362378,24.8118103 73.8451051,24.5072636 73.270938,24.3042324 C72.6967709,24.1015156 72.1090723,24 71.5081497,24 C70.8961558,24 70.3029216,24.1015156 69.729062,24.3042324 C69.1545874,24.5072636 68.6637622,24.8118103 68.2559713,25.2175583 C67.8371092,25.6343065 67.5234239,26.1333985 67.3139928,26.7148345 C67.1045618,27.2962704 67,27.8940494 67,28.5081715 C67,29.1226079 67.1045618,29.7203869 67.3139928,30.3015086 C67.5234239,30.8832588 67.8371092,31.3820366 68.2559713,31.7987847 C68.6637622,32.204847 69.1518196,32.5062509 69.7210661,32.7039391 C70.2896976,32.901313 70.880164,33 71.4918503,33 C72.1038442,33 72.6967709,32.901313 73.270938,32.7039391 C73.8451051,32.5062509 74.3362378,32.1995041 74.7440287,31.7824417 L74.7440287,31.7987847 Z M71.2966451,30.866202 C70.8509093,30.6887071 70.5266089,30.3831045 70.3237438,29.9493944 C70.1205949,29.5162828 70.0141971,29.0538382 70.0042667,28.5626591 C69.9943362,28.3746881 70.0017131,28.1843226 70.0266811,27.9906645 C70.0510817,27.7976051 70.08825,27.612328 70.1379023,27.4345337 C70.276645,26.9643069 70.5439162,26.5988409 70.9399997,26.3375373 C71.3360832,26.0765329 71.7619581,25.9669829 72.2176243,26.008588 C72.3067147,26.0190641 72.4006285,26.0349279 72.4996494,26.0555807 C72.5986702,26.0765329 72.6928678,26.1079612 72.7819582,26.1495662 C73.1979026,26.3375373 73.4997886,26.6380514 73.6878998,27.0505101 C73.8760111,27.4635675 73.9798554,27.8993729 74,28.3591236 C74,28.5680468 73.987516,28.7742762 73.9628317,28.978111 C73.9378637,29.1816465 73.9009791,29.3723114 73.8513268,29.5501056 C73.7125841,30.0514614 73.4353824,30.4327912 73.0197217,30.6937955 C72.6037773,30.9550992 72.1580416,31.0490847 71.6827981,30.9760513 C71.6234991,30.9655752 71.5613628,30.9500108 71.4969567,30.9287593 C71.4325505,30.9081064 71.3658746,30.8817665 71.2966451,30.8506376 L71.2966451,30.866202 Z M78,24 L78,33 L80.307046,33 L80.307046,25.9807894 L82.1661251,25.9980789 C82.7856067,25.9980789 83.1952128,26.106383 83.3943093,26.3226648 C83.5934057,26.5389467 83.692954,26.960419 83.692954,27.5864294 L83.692954,33 L86,33 L86,27.3130596 C86,26.0264598 85.678846,25.1554605 85.0374891,24.7000616 C84.3954981,24.2449889 83.499247,24.0114176 82.3487358,24 L78,24 Z M5.79430377,3.08912182 L10,3.08912182 L10,1 L5.74344539,1.0166006 C3.90055808,1.0166006 2.51831162,1.46258214 1.59702994,2.35390673 C0.675424315,3.24523132 0.152587241,4.63808561 0.0281947777,6.53183112 C0.016856923,6.6991141 0.0084345166,6.86639708 0.00292755858,7.03336082 C-0.00290333815,7.20064381 1.21102115e-05,7.37335391 0.011349965,7.55149113 C0.0340256745,8.37609407 0.181093848,9.18090399 0.452230545,9.96655937 C0.723691182,10.7518955 1.19858533,11.417835 1.87691298,11.9637394 C2.44218602,12.4094017 3.04406414,12.6935274 3.68287127,12.8161164 C4.3216784,12.9387055 4.98575275,13 5.6757422,13 L10,13 L10,10.9108782 L5.79430377,10.9274788 L5.71785423,10.9274788 L5.64172863,10.9274788 C5.26855124,10.9274788 4.9041202,10.8914044 4.54778762,10.8189364 C4.19177898,10.7464684 3.88338933,10.5597116 3.62359049,10.2589853 C3.32945414,9.9359121 3.13444304,9.57963766 3.03855718,9.18920429 C2.94234739,8.7994094 2.89440446,8.39301391 2.89440446,7.96937934 L10,7.96937934 L10,5.88025752 L2.91124927,5.89685812 C2.96761461,5.00553353 3.22773739,4.31756631 3.69129368,3.83295645 C4.15484997,3.34802735 4.85585333,3.1002953 5.79430377,3.08912182 Z M20,13 L20,1 L17.613753,1 L17.613753,4.19210407 L15.5708343,4.20902392 C14.8727005,4.20902392 14.2175237,4.29234617 13.6053039,4.45962915 C12.9930841,4.62659289 12.4523501,4.99436005 11.9831019,5.5626114 C11.6053423,6.03062066 11.3420255,6.54619703 11.1934794,7.10870201 C11.0446054,7.671207 10.9816454,8.2480779 11.0045996,8.83835697 C11.0731341,10.1309692 11.4879482,11.147756 12.249042,11.8883982 C13.0101358,12.6296789 14.0660263,13 15.4163857,13 L20,13 Z M18,10.9822647 L17.6569693,10.9822647 C17.5399616,10.9822647 17.4251918,10.9879559 17.3139386,10.9990219 C16.4210358,11.010088 15.6540921,10.9272505 15.0127877,10.7505094 C14.370844,10.5740845 14.0335678,9.90095077 14,8.73110818 L14,8.49935288 L14,8.25115655 C14.0223785,7.94225487 14.0808824,7.63619876 14.1758312,7.33267203 C14.2704604,7.0291453 14.4351023,6.76166238 14.6694373,6.52990708 C14.8033887,6.40849639 14.951087,6.3038429 15.1131714,6.21531427 C15.2746164,6.12710182 15.4450128,6.07746255 15.6234015,6.06639647 C15.8244885,6.04426431 16.0223785,6.03066885 16.217711,6.02497772 C16.4127238,6.01960277 16.6109335,6.0167572 16.8117008,6.0167572 L17.1464194,6.0167572 L17.4811381,6.0167572 L17.7324169,6.0167572 C17.8216113,6.0167572 17.9108056,6.01106608 18,6 L18,10.9658237 L18,10.9822647 Z M30,13 L30,4 L27.6880982,4 L27.6880982,11.0189561 L25.8254239,11.0359188 C25.2599182,11.0359188 24.8662881,10.9334904 24.6445336,10.7286336 C24.4224614,10.5237767 24.3119018,10.1196086 24.3119018,9.51612903 L24.3119018,4 L22,4 L22,9.72098586 C22,10.9961218 22.3269131,11.861544 22.9813748,12.3169264 C23.6355188,12.7723088 24.5225368,13 25.6424288,13 L30,13 Z M36.4538285,11.087133 L36.3762734,11.087133 L36.28163,11.087133 L36.0667105,11.087133 L35.8514624,11.087133 C35.6220835,11.076042 35.3982912,11.0532077 35.1807427,11.0189561 C34.962537,10.9847046 34.7561617,10.9109822 34.5612882,10.7968104 C34.1597108,10.5577021 33.8843247,10.23639 33.7354584,9.83189561 C33.5862636,9.42805364 33.5060795,9.00366075 33.4945777,8.55969554 C33.4945777,8.10463936 33.5662175,7.66621964 33.7098258,7.2447626 C33.8531055,6.82363175 34.1367072,6.48764045 34.5612882,6.2371149 C34.7561617,6.12359551 34.962537,6.04922073 35.1807427,6.0152954 C35.3982912,5.98104386 35.6220835,5.96408119 35.8514624,5.96408119 L36.0322051,5.96408119 L36.2300361,5.96408119 L36.341768,5.96408119 C36.38186,5.96408119 36.419323,5.9582095 36.4538285,5.94679232 L39,5.94679232 L39,4 L35.7482747,4.01728887 C35.1291489,4.01728887 34.5238252,4.08546575 33.9332895,4.2221457 C33.3424252,4.35882566 32.8120276,4.64914824 32.3420966,5.09311345 C31.952021,5.46857557 31.6480447,5.90699529 31.4301676,6.40804639 C31.2122905,6.9090975 31.080184,7.42156578 31.0345054,7.94479884 C31.0230036,8.04755346 31.0144594,8.14998188 31.0085442,8.25241029 C31.002629,8.35483871 31,8.45726713 31,8.55969554 C31,8.6396158 31.002629,8.7221457 31.0085442,8.80728525 C31.0144594,8.892751 31.017417,8.9756071 31.017417,9.05487495 C31.0745974,9.5901776 31.2122905,10.1111272 31.4301676,10.6177238 C31.6480447,11.1243204 31.952021,11.5653498 32.3420966,11.9411381 C32.8120276,12.3851033 33.3424252,12.6728162 33.9332895,12.8036245 C34.5238252,12.9344328 35.1291489,13 35.7482747,13 L39,13 L39,11.0701704 L36.4538285,11.0701704 L36.4538285,11.087133 Z M40.5921655,4 L40.5921655,5.86165277 L44.4777496,5.87861544 C45.1032182,5.87861544 45.6192699,5.96995288 46.0271842,6.15197535 C46.4344587,6.33399783 46.6216194,6.7952519 46.5883464,7.53508518 L43.52307,7.55204784 C42.5962246,7.55204784 41.7979923,7.71188837 41.1280529,8.03026459 C40.4581136,8.34929322 40.0837922,9.04932947 40.0057286,10.1310257 C39.960938,11.0303733 40.1788122,11.7333454 40.6590314,12.239942 C41.1389306,12.7465386 41.8315852,13 42.7360353,13 L49,13 L49,7.38144255 C49,6.92606017 48.9356935,6.48209496 48.8074004,6.04922073 C48.6791074,5.61667271 48.4529149,5.24121058 48.1291429,4.92218195 C47.7493826,4.53530265 47.3222723,4.28771294 46.8478119,4.17941283 C46.3730316,4.07143893 45.8790553,4.01141718 45.3655631,4 L40.5921655,4 Z M44.2067403,11 C43.8856795,10.9878451 43.5992699,10.9392256 43.3478183,10.8544886 C43.09606,10.7697517 42.9810669,10.4908838 43.0025323,10.0182323 C43.013265,9.5938531 43.1472703,9.32436187 43.403935,9.20906407 C43.6609063,9.09411356 43.9390363,9.03056086 44.2386317,9.01805869 L44.3030279,9.01805869 C44.3241866,9.01805869 44.345652,9.01215489 44.3671174,9 L47,9 L47,10.981594 L44.2067403,10.981594 L44.2067403,11 Z M56.4538285,11.087133 L56.3762734,11.087133 L56.28163,11.087133 L56.0667105,11.087133 L55.851791,11.087133 C55.6220835,11.076042 55.3982912,11.0532077 55.1807427,11.0189561 C54.9628656,10.9847046 54.7561617,10.9109822 54.5612882,10.7968104 C54.1597108,10.5577021 53.8843247,10.23639 53.7354584,9.83189561 C53.5862636,9.42805364 53.5060795,9.00366075 53.4945777,8.55969554 C53.4945777,8.10463936 53.5662175,7.66621964 53.7098258,7.2447626 C53.8531055,6.82363175 54.1370358,6.48764045 54.5612882,6.2371149 C54.7561617,6.12359551 54.9628656,6.04922073 55.1807427,6.0152954 C55.3982912,5.98104386 55.6220835,5.96408119 55.851791,5.96408119 L56.0322051,5.96408119 L56.2300361,5.96408119 L56.3420966,5.96408119 C56.3821886,5.96408119 56.419323,5.9582095 56.4538285,5.94679232 L59,5.94679232 L59,4 L55.7482747,4.01728887 C55.1291489,4.01728887 54.5241538,4.08546575 53.9332895,4.2221457 C53.3424252,4.35882566 52.8120276,4.64914824 52.3420966,5.09311345 C51.952021,5.46857557 51.6480447,5.90699529 51.4301676,6.40804639 C51.2122905,6.9090975 51.080184,7.42156578 51.0345054,7.94479884 C51.0230036,8.04755346 51.0144594,8.14998188 51.0088728,8.25241029 C51.0029576,8.35483871 51,8.45726713 51,8.55969554 C51,8.6396158 51.0029576,8.7221457 51.0088728,8.80728525 C51.0144594,8.892751 51.017417,8.9756071 51.017417,9.05487495 C51.0745974,9.5901776 51.2122905,10.1111272 51.4301676,10.6177238 C51.6480447,11.1243204 51.952021,11.5653498 52.3420966,11.9411381 C52.8120276,12.3851033 53.3424252,12.6728162 53.9332895,12.8036245 C54.5241538,12.9344328 55.1291489,13 55.7482747,13 L59,13 L59,11.0701704 L56.4538285,11.0701704 L56.4538285,11.087133 Z M62,4 L60,4 L60,13 L62,13 L62,4 Z M62,1 L60,1 L60,3 L62,3 L62,1 Z M71.7442933,11.7988267 C72.1628622,11.3820931 72.4768658,10.8830185 72.686304,10.3016028 C72.8954347,9.72018717 73,9.12242903 73,8.50801411 C73,7.89391347 72.8954347,7.29615532 72.686304,6.71473967 C72.4768658,6.1336383 72.1628622,5.63456368 71.7442933,5.2175158 C71.336181,4.81178196 70.8450314,4.50756015 70.2711523,4.30453609 C69.696658,4.10151203 69.1092469,4 68.5079962,4 C67.896289,4 67.3030344,4.10151203 66.7288477,4.30453609 C66.154661,4.50756015 65.6635115,4.81178196 65.2557067,5.2175158 C64.8371378,5.63456368 64.5231342,6.1336383 64.3140036,6.71473967 C64.1045653,7.29615532 64,7.89391347 64,8.50801411 C64,9.12242903 64.1045653,9.72018717 64.3140036,10.3016028 C64.5231342,10.8830185 64.8371378,11.3820931 65.2557067,11.7988267 C65.6635115,12.2045605 66.1518931,12.5062681 66.7208516,12.7036352 C67.28981,12.9010022 67.8802966,13 68.4920038,13 C69.103711,13 69.696658,12.9010022 70.2711523,12.7036352 C70.8450314,12.5062681 71.336181,12.1992178 71.7442933,11.7821699 L71.7442933,11.7988267 Z M67.2964578,10.8663433 C66.8509749,10.6888466 66.5263683,10.383241 66.3234891,9.94952637 C66.12061,9.5161111 66.0139211,9.05396112 66.0042736,8.56277711 C65.9943425,8.37480419 66.0017199,8.18413739 66.0264059,7.99077671 C66.0510919,7.79771535 66.0882628,7.61213699 66.1379185,7.43464026 C66.2763871,6.96440864 66.5439606,6.598939 66.9400715,6.33763269 C67.3361824,6.07662571 67.761803,5.96677529 68.2175009,6.00868008 C68.3065974,6.01915628 68.4008015,6.03472092 68.4998292,6.05567331 C68.5985732,6.07662571 68.6927772,6.1080543 68.7821575,6.14965977 C69.197847,6.33763269 69.5000376,6.63814991 69.688162,7.05061278 C69.8762863,7.46337498 69.9801377,7.89948413 70,8.35894023 C70,8.56816486 69.9875151,8.7743963 69.9631129,8.97793386 C69.9381431,9.18177074 69.9009723,9.37243754 69.8516003,9.54993426 C69.712848,10.0512952 69.4356271,10.4329281 69.0196538,10.6939351 C68.6036806,10.9552414 68.1581977,11.0492278 67.6829214,10.9758944 C67.6233345,10.9657176 67.5614776,10.9498536 67.497067,10.9289012 C67.4326564,10.9079488 67.3656921,10.881908 67.2964578,10.8504794 L67.2964578,10.8663433 Z M75,4 L75,13 L77.307046,13 L77.307046,5.98104386 L79.165808,5.99800652 C79.7856067,5.99800652 80.1948958,6.10663284 80.3939922,6.32258065 C80.5934057,6.53885466 80.692954,6.96031171 80.692954,7.58629938 L80.692954,13 L83,13 L83,7.31293947 C83,6.02671258 82.678846,5.15574484 82.0371721,4.70036245 C81.3954981,4.24498007 80.499247,4.01141718 79.3484188,4 L75,4 Z M94.8254239,10.8954604 C94.1935189,10.8954604 93.7801914,10.7842072 93.5863945,10.5607417 C93.3922799,10.3375959 93.2953814,9.90249361 93.2953814,9.25543478 L93.2953814,4 L91,4 L91,9.45620205 C91,10.7394501 91.3103928,11.620844 91.931496,12.1007033 C92.5522815,12.5805627 93.4558199,12.8203325 94.6424288,12.8203325 L96.6880982,12.8203325 C96.6992177,13.2886829 96.5883404,13.6345908 96.3554664,13.8577366 C96.1225924,14.0808824 95.7734403,14.1982097 95.3076923,14.209399 L91.1664747,14.209399 L91.1664747,16 L95.707041,16 C96.8599738,16 97.6971129,15.7129156 98.2184584,15.1381074 C98.7394861,14.5632992 99,13.7125959 99,12.5859974 L99,4 L96.6880982,4 L96.6880982,10.8788363 L94.8254239,10.8788363 L94.8254239,10.8954604 Z M71.8945353,0 C71.6432301,0.05937309 71.4229029,0.124683489 71.2335538,0.195931197 C71.0442047,0.267877412 70.8750435,0.353444512 70.7257222,0.453331005 C70.3943613,0.663232341 70.132614,0.92377543 69.9397842,1.23496027 C69.7473025,1.54649437 69.5426384,1.92019558 69.3250957,2.35641317 C69.2794988,2.44267877 69.229377,2.53662796 69.1754264,2.63895922 C69.1211277,2.74129049 69.0626523,2.85130533 69,2.97005151 L70.9307344,4 L72,1.98201345 L71.0988514,1.50144067 L71.8945353,0 Z M75.8945353,20 C75.6432301,20.0593731 75.4229029,20.1246835 75.2335538,20.1959312 C75.0442047,20.2678774 74.8750435,20.3534445 74.7257222,20.453331 C74.3943613,20.6632323 74.132614,20.9237754 73.9397842,21.2349603 C73.7473025,21.5464944 73.5426384,21.9201956 73.3250957,22.3564132 C73.2794988,22.4426788 73.229377,22.536628 73.1754264,22.6389592 C73.1211277,22.7412905 73.0626523,22.8513053 73,22.9700515 L74.9307344,24 L76,21.9820134 L75.0988514,21.5014407 L75.8945353,20 Z" id="Fill-70"></path>
                </g>
                <g id="tierra" transform="translate(141.000000, 0.000000)" fill="#A0C93C">
                    <path d="M40.4406277,0.529081845 C40.561758,1.61902784 42.0721715,1.02762775 42.1913636,2.11757374 C40.3285418,4.27503116 38.9305372,6.99459909 36.9394789,9 C35.3240858,7.95554632 34.9875052,5.36061487 33,4.76391774 C34.0078037,0.512567511 38.7344677,0.759347736 42.6296936,0 C44.0225301,0.72912339 41.0837486,0.523473203 40.4406277,0.529081845 Z M67,47 C64.9174312,46.597116 64.3957608,44.3713949 64,42 C66.1211642,42.359329 66.7801329,44.4243673 67,47 Z M74.0879206,52.7423148 C75.480272,52.9988924 75.3395609,51.3632503 75.8656696,50.5489793 C78.1134397,52.2178636 76.5095297,58.2466314 75.4205764,59.8709777 C74.7550685,60.8614642 72.6847453,62.0688314 71.4206411,63.7086692 C70.0660095,65.464693 70.3444798,67.0086773 67.8651431,66.9999633 C66.9716766,65.8819948 68.0622699,65.9242736 68.3099084,64.8063051 C67.8523512,64.534236 65.9571789,65.906523 64.3096451,64.8063051 C63.3240112,60.4935415 65.0312406,59.0857532 64.7547384,54.3866709 C66.1707056,51.5643168 71.933958,54.105565 72.3101716,50 L74.0879206,50 C74.6576531,50.7209993 74.6576531,52.0216382 74.0879206,52.7423148 Z M73.3644131,31.6740061 C71.0749949,31.6499621 71.2580334,28.5549241 69.9020155,27.3739187 C68.6389543,29.0535217 68.7993126,30.7641289 68.603816,32.749028 C67.9045644,32.5978036 67.8588846,33.2574329 67.3056165,33.2868552 C65.7560187,33.0606514 65.2222364,31.5721353 65.1414184,29.5239624 C64.7766192,32.3715997 62.583991,33.6576397 61.2452228,31.1358624 C61.5815919,31.6148451 61.7103257,32.3497703 61.6783819,33.2868552 C62.7705433,33.5494415 63.6106674,33.583293 65.1414184,34.3618771 C65.569147,37.4021832 63.5860706,37.4471076 62.5434222,38.6619645 C60.4050986,45.6806108 57.8987815,52.2465329 56.0514666,59.6261562 C54.3466215,61.2709586 52.4053917,62.6247016 51.2889529,65 C49.4643182,64.9367262 49.0995191,63.0600253 47.8262358,62.3118126 C47.3349389,56.8329343 44.1082871,54.7464808 43.4991172,49.4118667 C44.3072975,47.5484533 44.6542081,45.1139939 45.6617182,43.4998792 C45.5208457,41.7041688 44.918384,40.481719 43.9303597,39.7369864 C42.6832704,41.4526555 39.167846,38.7768065 37.4384041,41.8870301 C30.525428,38.742955 35.6683934,28.2771522 38.7362841,24.1488531 C37.8469663,22.7457566 36.4203525,22.0098823 35.7070455,20.3859602 C36.5842246,18.2741972 36.0488451,16.9827789 37.8715631,15.5477291 C37.5898181,15.002309 36.8765111,14.9921852 37.005245,13.9358291 C36.3251597,14.1664621 36.6350154,15.626505 35.273567,15.010851 C34.7171045,13.7434768 35.3301077,14.0101758 34.8404079,12.3226636 C35.9482218,11.7269408 37.2058526,11.3188247 37.8715631,10.1726199 C38.8158243,11.5080134 39.6329489,13.0019078 42.1990011,12.3226636 C43.5269084,8.51832638 47.206205,10.7547388 48.6928734,6.94787067 C46.7289634,6.37587552 45.1739351,9.03780427 42.6324797,8.56071982 C42.7538664,7.33478995 42.5283426,6.54007103 41.7674393,6.41067611 C42.7362973,3.22294208 45.4994433,2.87525256 47.3927573,2.10963958 C47.8297497,0.493310368 46.4296492,1.15705253 45.6617182,1.03461772 C52.6679704,0.80841389 67.2267151,8.84956472 70.7683336,15.5477291 C70.3422022,17.7392172 72.5156641,16.1032731 71.633374,18.2359165 C72.0243671,18.8404977 72.6019126,18.202065 73.3644131,19.3109384 C75.4746261,25.1121967 79.1996025,28.9070428 78.9916478,37.5869427 C78.405158,33.7449576 77.4631329,29.6473463 76.8271302,27.3739187 C75.4711123,28.5558732 74.0952892,29.7141002 73.3644131,31.6740061 Z M39.9552936,14.5005151 C40.2361864,13.1554084 39.1165081,13.533922 38.7385905,13 C38.7978835,13.665195 37.3745535,14.8604857 38.3322243,15 C38.4079875,14.2594555 39.3129534,14.5423105 39.9552936,14.5005151 Z M44.850548,22.7256754 C45.3816008,23.6108141 47.6997675,24.7064098 48,22.7256754 C46.5938227,22.9752723 46.5626038,21.5614244 46.6502823,20 C43.8359349,20.1594469 40.3550316,19.5518163 39,23.8158172 C41.4809034,23.9977214 43.1604118,24.424731 44.850548,22.7256754 Z M53,24.7194124 C50.0496675,25.3941301 47.0872604,17.1621748 48.2645337,23.2676865 C49.8850717,23.3996098 51.7264478,25.8050013 53,24.7194124 Z M22.9967689,3.07245462 C24.374116,6.15883888 28.9718835,0.163760748 29.4993441,5.21704825 C29.0105874,6.57892043 27.32137,6.4564624 26.8978662,7.89881602 C26.9420078,9.26258189 28.5131943,9.16537294 29.0652846,8.43472772 C29.8201706,7.62707281 28.6209894,6.12159649 29.9314843,5.21704825 C32.2082972,5.61977105 34.2397722,6.32264228 34.7000607,8.97127064 C34.0510507,9.64763034 33.3950036,11.160997 32.5326423,10.0437253 C32.3493585,11.4333714 32.357995,12.5190818 31.2330229,13.7966852 C30.0495152,14.1874147 30.3597861,12.7318053 29.4993441,12.7242306 C28.6174709,13.1682988 30.5398712,14.6030777 30.7989635,15.4059984 C28.6088345,17.7011396 24.9191693,18.1420517 23.4308284,21.3048144 C21.8945074,20.2443531 22.5735849,20.6054149 20.8293505,21.3048144 C21.3021138,22.8014535 18.6654506,25.8629043 16.496113,23.9853197 C14.5350087,24.8974427 15.046476,27.4624335 14.7624341,29.3475928 C13.332309,29.6354323 12.0550803,28.8937406 13.0287553,27.7395421 C11.55097,28.2347397 10.6495849,29.4435393 10.8613368,32.029045 C13.2494635,34.5069264 12.5262443,34.8089685 15.6283139,34.7108127 C15.820554,36.7345264 14.7749089,37.2278303 14.3286945,38.4637727 C17.2721102,39.4251314 16.9033036,36.2885646 18.2297918,35.2464088 C19.8259279,34.7521581 19.017944,38.0752525 18.6635314,38.4637727 C19.6106574,38.3851849 19.5930647,37.1132626 19.5294112,35.7832674 C21.4502122,35.7299287 22.772862,36.4182817 22.9967689,38.4637727 C25.4888523,38.7342534 26.8271756,40.1046472 28.1974856,39.5362273 C29.3723569,40.5856421 30.5625818,41.6167514 30.7989635,43.8269926 C33.7267056,43.7244182 34.1217413,42.2593405 36,44.3638512 C35.5713783,47.0497219 34.4409685,48.8695493 34.7000607,52.406314 C33.4852061,53.5848147 31.6120652,53.9468234 30.3652239,55.0880818 C30.9489811,60.4557203 29.6404054,63.486241 28.631545,66.8838201 C29.0000318,69.770421 31.4358185,72.5396138 29.9314843,76 C28.2134789,72.9429678 26.665003,69.6744745 23.8645679,67.9572216 C24.9668294,65.3171148 23.1362309,62.2143186 20.3972102,62.5940016 C19.4520034,59.4738467 17.9332752,57.0625597 14.3286945,57.232991 C14.3181389,53.1328562 11.8311734,52.0989064 10.4275973,49.7248618 C10.5120421,46.0766855 11.9405679,44.0889518 13.0287553,41.6808209 C11.2845208,38.8336717 8.87912138,36.8055394 6.52618012,34.7108127 C7.51041072,33.102762 6.09084121,30.8836836 5.22656072,29.8844513 C3.66209149,30.2726559 4.77139006,33.9700679 3.92694132,35.2464088 C-0.0909073907,32.657747 3.30256104,27.5006227 3.05914229,22.377269 C6.22294626,20.9286031 7.11025717,16.6627713 9.99353782,14.8691398 C8.16485849,13.6953733 6.43469818,17.2450781 3.49288187,16.478453 C3.30959811,15.3580251 3.78907866,15.0578767 3.92694132,14.3335437 C2.35895355,15.6111471 1.41374672,17.6597943 0.459583623,19.6955012 C-1.04858903,20.8727395 1.58647487,16.2439522 2.1929426,15.4059984 C5.96737257,10.1813327 13.5402225,5.91013546 20.3972102,3.6080507 C21.1712882,3.45750307 21.2861205,4.11555719 20.8293505,4.14490924 C16.4465336,4.97844445 13.4804074,7.56268766 9.56139757,8.97127064 C13.1982848,11.6877559 16.3179471,4.94782994 20.8293505,5.21704825 C21.6917118,5.21073598 21.3814408,3.75417975 22.5630293,4.14490924 C20.4749379,2.56084516 25.0461564,2.53559608 26.4641266,2 C25.7709749,2.92948171 24.513578,3.1608264 22.9967689,3.07245462 Z M31.8772783,79.2832854 C33.1890338,76.9399967 34.3015673,77.0971704 37.035475,76.1096215 C37.8996157,75.2334949 37.3606381,72.6325035 38.7548739,72.4084142 C40.9288666,72.0255951 40.3797376,74.9929102 42.1936717,75.0529785 C43.6802221,74.7647749 43.8061633,72.8064839 45.2019853,72.4084142 C46.8252628,72.1740542 47.2205342,73.4522966 48.2122023,73.9941569 C50.8794912,73.4155709 55.1018527,73.9169706 56.8088795,76.1096215 C58.7611269,75.5157851 61.0052279,75.2789352 62.3975604,73.9941569 C62.7106686,75.4379763 61.5438883,75.0592032 61.5369092,76.1096215 C70.2420799,71.1756122 70.8736893,67.8600251 76.152117,59.718116 C77.6443776,57.4177777 76.7469275,57.8245619 76.5826012,58.6592944 C75.0713067,66.3558261 68.6416431,71.877136 62.8277273,75.5823894 C54.6364729,80.7999339 37.2733992,86.050158 25,80.869028 C26.7473153,81.3016448 29.7016994,78.1469662 31.8772783,79.2832854 Z M57,79 C58.0973218,78.4873405 59.429671,78.3354269 60,77 C58.6954871,77.192738 57.0749684,76.8944063 57,79 Z M37,81.747986 C40.8607803,82.6094013 47.9036676,81.1536862 52,79.0333778 C47.8716866,78.8058824 41.8933967,79.7446205 37,81.747986 Z M55.2448742,77.5042556 C55.2876574,78.1042229 55.3558344,78.6719713 55.9920615,78.4893978 C56.0605146,77.4139848 55.6862309,76.9199624 54.8705905,77.0105235 C54.5752486,79.247847 53.513122,77.6104907 53,78.4893978 C53.9542027,79.7534798 54.8140063,78.379099 55.2448742,77.5042556 Z M36.9326157,83 C37.2788582,80.9178174 36.1381101,80.456608 36.9326157,79.3848286 C35.1568283,79.6274956 34.5509825,82.3085408 33.1041725,79.9879484 C33.7671498,80.0347789 33.4001893,78.2342887 33.1041725,79.3848286 C31.7540466,82.0899986 29.5525976,79.1024266 28,81.7955341 C30.8506144,82.3770127 34.3105276,82.0949654 36.9326157,83 Z M21.9835934,29.8645144 C22.0558085,30.524152 21.8862174,30.8740206 21.5421337,31 C19.5838305,30.1047776 18.8845531,27.5925408 18,25.3225722 L18,48.6822951 L18,25.3225722 C19.7802163,24.0059703 22.0250925,26.9582996 21.9835934,29.8645144 Z M18,30.268962 C17.677694,31.2549897 17.3428713,32.222488 16.2343578,31.9548046 C15.7482911,30.1763151 16.1566497,30.0767197 16.2343578,28.0202894 C17.4419621,27.7823855 17.295412,29.7038159 18,30.268962 Z M19,31.1078848 C20.5916412,30.4713199 21.4180703,32.8092492 20.7879577,34 C19.6649429,33.8883458 19.0683414,32.9246479 19,31.1078848 Z M66.2115622,40 C65.6285279,38.4108299 64.4788192,35.4555621 65.2675688,34 C67.8374445,34.0824014 69.4072859,39.5002943 66.2115622,40 Z M73,45.9900814 C73.2204799,44.0823215 73.0992556,41.6379211 74.7934834,42.044879 C75.4356013,43.4654172 74.5089505,46.1847711 73,45.9900814 Z M70.459151,49 C70.8197823,47.5933419 69.8442408,47.7109055 70.021817,46.5109364 C70.8056019,46.5739692 70.9441823,45.9008373 71.7685745,46.0125373 C72.2323354,47.3338812 72.0956887,48.8460826 70.459151,49 Z" id="Fill-85"></path>
                </g>
            </g>
        </g>
    </g>
</svg>